<svg width="20" height="20" viewBox="0 0 20 20" fill="none" xmlns="http://www.w3.org/2000/svg">
<path d="M14.3153 6.74019C13.9813 6.36527 13.4066 6.33238 13.0318 6.66644C12.657 7.00051 12.624 7.57515 12.9581 7.94996C13.6048 8.67558 13.9611 9.61117 13.9611 10.5845C13.961 12.7686 12.1841 14.5455 9.99997 14.5455C7.81582 14.5455 6.03895 12.7686 6.03895 10.5845C6.03895 9.61129 6.39512 8.67574 7.042 7.94996C7.37606 7.57515 7.34297 7.00043 6.96817 6.66637C6.59333 6.3323 6.01872 6.36539 5.68465 6.74019C4.74067 7.79941 4.22083 9.16461 4.22083 10.5845C4.22075 13.7711 6.81329 16.3636 9.99997 16.3636C13.1866 16.3636 15.7792 13.7711 15.7792 10.5844C15.7792 9.16449 15.2593 7.79926 14.3153 6.74019Z" fill="#88C646"/>
<path d="M10 3.63638C9.49797 3.63638 9.09094 4.04341 9.09094 4.54548V8.44154C9.09094 8.94361 9.49797 9.35064 10 9.35064C10.5021 9.35064 10.9091 8.94361 10.9091 8.44154V4.54548C10.9091 4.04341 10.5021 3.63638 10 3.63638Z" fill="#88C646"/>
<path d="M10 0C4.48602 0 0 4.48602 0 10C0 15.514 4.48602 20 10 20C15.5141 20 20 15.514 20 10C20 4.48602 15.5141 0 10 0ZM10 18.1818C5.48855 18.1818 1.81816 14.5115 1.81816 10C1.81816 5.48852 5.48855 1.81816 10 1.81816C14.5114 1.81816 18.1818 5.48855 18.1818 10C18.1818 14.5114 14.5114 18.1818 10 18.1818Z" fill="#88C646"/>
</svg>
